<svg xmlns="http://www.w3.org/2000/svg" xmlns:xlink="http://www.w3.org/1999/xlink" viewBox="0 0 125.64 125.57"><defs><style>.cls-1{fill:url(#linear-gradient);}.cls-2{fill:url(#linear-gradient-2);}.cls-3{fill:url(#linear-gradient-3);}.cls-4{fill:url(#linear-gradient-4);}.cls-5{fill:url(#linear-gradient-5);}.cls-6{fill:url(#linear-gradient-6);}</style><linearGradient id="linear-gradient" x1="0.9" y1="62.78" x2="124.68" y2="62.78" gradientUnits="userSpaceOnUse"><stop offset="0" stop-color="#ff7300"/><stop offset="0.29" stop-color="#f97c01"/><stop offset="0.78" stop-color="#ea9602"/><stop offset="0.91" stop-color="#e59e03"/><stop offset="1" stop-color="#e5c500"/><stop offset="1" stop-color="#d9aa00"/><stop offset="1" stop-color="#d09400"/><stop offset="1" stop-color="#c88300"/><stop offset="1" stop-color="#c37800"/><stop offset="1" stop-color="#c07100"/><stop offset="1" stop-color="#bf6f00"/></linearGradient><linearGradient id="linear-gradient-2" x1="31.67" y1="62.74" x2="94.3" y2="62.74" xlink:href="#linear-gradient"/><linearGradient id="linear-gradient-3" x1="31.03" y1="45.38" x2="58.94" y2="45.38" xlink:href="#linear-gradient"/><linearGradient id="linear-gradient-4" x1="31.16" y1="54.16" x2="76.61" y2="54.16" xlink:href="#linear-gradient"/><linearGradient id="linear-gradient-5" x1="66.64" y1="80.51" x2="94.54" y2="80.51" xlink:href="#linear-gradient"/><linearGradient id="linear-gradient-6" x1="48.96" y1="71.73" x2="94.43" y2="71.73" xlink:href="#linear-gradient"/></defs><title>Asset 3</title><g id="Layer_2" data-name="Layer 2"><g id="Layer_1-2" data-name="Layer 1"><path class="cls-1" d="M100,113.57c20.73-15.66,30.44-42.5,23.34-67.73A63.51,63.51,0,0,0,67.32.17,63.4,63.4,0,0,0,4.91,38.29,63.49,63.49,0,0,0,19.79,108.8c22,20.58,55.94,22.26,80.21,4.77,1.55-1.11,0-3.72-1.52-2.59-19.93,14.37-46.77,15.74-67.69,2.54A60.39,60.39,0,0,1,4.55,48.92,60.43,60.43,0,0,1,56.69,3.3,60.47,60.47,0,0,1,116.4,36.18C129.33,62,121.33,93.72,98.48,111,97,112.13,98.45,114.74,100,113.57Z"/><path class="cls-2" d="M92.89,30.3,38.76,85.17,31,93.06c-1.36,1.38.76,3.5,2.12,2.13L87.22,40.32,95,32.42c1.35-1.37-.77-3.5-2.12-2.12Z"/><path class="cls-3" d="M32.45,60.23,59.64,32.66c1.36-1.38-.76-3.5-2.12-2.12L30.33,58.11a1.5,1.5,0,0,0,2.12,2.12Z"/><path class="cls-4" d="M32.57,77.9,77.32,32.55c1.36-1.38-.76-3.5-2.12-2.13L30.45,75.78c-1.36,1.38.76,3.5,2.12,2.12Z"/><path class="cls-5" d="M68.05,95.35l27.2-27.56c1.36-1.38-.76-3.5-2.12-2.13L65.93,93.23c-1.36,1.38.76,3.5,2.12,2.12Z"/><path class="cls-6" d="M50.37,95.47,95.13,50.11c1.36-1.38-.76-3.5-2.12-2.13L48.25,93.35c-1.36,1.38.76,3.5,2.12,2.12Z"/></g></g></svg>