<svg xmlns="http://www.w3.org/2000/svg" xmlns:xlink="http://www.w3.org/1999/xlink" viewBox="0 0 335.17 66.02"><defs><style>.cls-1{fill:url(#Gold_Dust);}.cls-2{fill:url(#Gold_Dust-2);}.cls-3{fill:url(#Gold_Dust-3);}.cls-4{fill:url(#Gold_Dust-4);}.cls-5{fill:url(#Gold_Dust-5);}.cls-6{fill:url(#Gold_Dust-6);}.cls-7{fill:url(#Gold_Dust-7);}.cls-8{fill:url(#Gold_Dust-8);}.cls-9{fill:url(#Gold_Dust-9);}</style><linearGradient id="Gold_Dust" x1="-22.13" y1="42.65" x2="408.29" y2="36.79" gradientUnits="userSpaceOnUse"><stop offset="0" stop-color="#ff7300"/><stop offset="0.18" stop-color="#f97c01"/><stop offset="0.47" stop-color="#ea9602"/><stop offset="0.55" stop-color="#e59e03"/><stop offset="0.87" stop-color="#e5c500"/><stop offset="0.99" stop-color="#bf6f00"/></linearGradient><linearGradient id="Gold_Dust-2" x1="-22.63" y1="5.94" x2="407.79" y2="0.08" xlink:href="#Gold_Dust"/><linearGradient id="Gold_Dust-3" x1="-22.12" y1="42.97" x2="408.29" y2="37.11" xlink:href="#Gold_Dust"/><linearGradient id="Gold_Dust-4" x1="-22.19" y1="38.03" x2="408.22" y2="32.17" xlink:href="#Gold_Dust"/><linearGradient id="Gold_Dust-5" x1="-22.1" y1="44.34" x2="408.31" y2="38.48" xlink:href="#Gold_Dust"/><linearGradient id="Gold_Dust-6" x1="-22.1" y1="44.64" x2="408.31" y2="38.78" xlink:href="#Gold_Dust"/><linearGradient id="Gold_Dust-7" x1="-22.09" y1="45.46" x2="408.32" y2="39.6" xlink:href="#Gold_Dust"/><linearGradient id="Gold_Dust-8" x1="-22.08" y1="46.11" x2="408.33" y2="40.25" xlink:href="#Gold_Dust"/><linearGradient id="Gold_Dust-9" x1="-22.07" y1="46.83" x2="408.34" y2="40.96" xlink:href="#Gold_Dust"/></defs><title>Asset 5</title><g id="Layer_2" data-name="Layer 2"><g id="Layer_1-2" data-name="Layer 1"><rect class="cls-1" x="1.35" y="19.09" width="9.59" height="46.34"/><path class="cls-2" d="M6.14,0A6.19,6.19,0,0,0,1.68,1.6,5.33,5.33,0,0,0,0,5.64a5.07,5.07,0,0,0,1.68,4A6.41,6.41,0,0,0,6.14,11.1a6.57,6.57,0,0,0,4.5-1.51,5,5,0,0,0,1.72-3.95,5.25,5.25,0,0,0-1.72-4A6.34,6.34,0,0,0,6.14,0Z"/><path class="cls-3" d="M48.45,18.34a18,18,0,0,0-10.1,2.86,15.5,15.5,0,0,0-6.22,8.07V19.09H22.54V65.43h9.59V40.79q0-7.07,3.45-10.72a12,12,0,0,1,9.16-3.66,11.41,11.41,0,0,1,8.75,3.41q3.19,3.41,3.2,9.63v26h9.59v-27q0-9.67-4.88-14.89T48.45,18.34Z"/><path class="cls-4" d="M91,55.59q-1.47-1.52-1.47-5.46V27.25h11.19V19.09H89.49V7.57H79.82V19.09H73.17v8.16h6.65V50q0,8.32,3.82,11.9t11.23,3.57h5.89V57.11H96.13C93.67,57.11,91.94,56.6,91,55.59Z"/><path class="cls-5" d="M142.27,21.32a26.37,26.37,0,0,0-23.81,0,20.39,20.39,0,0,0-8.11,8.25,25.77,25.77,0,0,0-2.95,12.61,26,26,0,0,0,2.95,12.7,20.31,20.31,0,0,0,8.11,8.24A24.18,24.18,0,0,0,130.37,66a25.09,25.09,0,0,0,10.51-2.14A19.71,19.71,0,0,0,152.4,49.29H142.14a10,10,0,0,1-4.08,6.47,13.31,13.31,0,0,1-8.12,2.44,12.91,12.91,0,0,1-9.16-3.45c-2.47-2.29-3.79-5.83-4-10.59h35.67a22.72,22.72,0,0,0,.33-4.13,22.23,22.23,0,0,0-2.73-11A19.61,19.61,0,0,0,142.27,21.32ZM116.82,39.78q.34-6.72,4.13-10.17a13.45,13.45,0,0,1,9.42-3.45,14.53,14.53,0,0,1,6.51,1.47,10.85,10.85,0,0,1,4.71,4.54,14.28,14.28,0,0,1,1.56,7.61Z"/><path class="cls-6" d="M171.66,28.18V19.09h-9.59V65.43h9.59V42q0-7.06,3.83-10.14t10.13-3.07h2.86V18.34A19,19,0,0,0,178.39,21,17.79,17.79,0,0,0,171.66,28.18Z"/><path class="cls-7" d="M222.59,41.55a62,62,0,0,0-8.45-2.44q-4-.93-6.1-1.68a10.24,10.24,0,0,1-3.58-2.1A4.66,4.66,0,0,1,203,31.79a5.88,5.88,0,0,1,2-4.67,8.29,8.29,0,0,1,5.59-1.72,10.32,10.32,0,0,1,7,2.31,9.85,9.85,0,0,1,3.23,6.1H230a17.65,17.65,0,0,0-6-11.14Q219,18.5,210.86,18.5q-7.83,0-12.24,3.66a11.79,11.79,0,0,0-4.42,9.55,10.8,10.8,0,0,0,2.23,7.19,12.83,12.83,0,0,0,5.38,3.83,69.71,69.71,0,0,0,8.2,2.35,53.2,53.2,0,0,1,6.23,1.64A10.67,10.67,0,0,1,220,49a5.06,5.06,0,0,1,1.52,3.87,5.92,5.92,0,0,1-2,4.58,7.72,7.72,0,0,1-5.42,1.81,12,12,0,0,1-7.74-2.35A8.8,8.8,0,0,1,203,50.72H193.7A16.62,16.62,0,0,0,200.13,62q5.34,4,14,4,7.49,0,11.9-3.61A11.6,11.6,0,0,0,230.45,53a11.2,11.2,0,0,0-2.31-7.45A13.67,13.67,0,0,0,222.59,41.55Z"/><path class="cls-8" d="M272.55,21.32a26.35,26.35,0,0,0-23.8,0,20.35,20.35,0,0,0-8.12,8.25,25.88,25.88,0,0,0-2.95,12.61,26.1,26.1,0,0,0,2.95,12.7,20.27,20.27,0,0,0,8.12,8.24A24.11,24.11,0,0,0,260.65,66a25.06,25.06,0,0,0,10.51-2.14,19.71,19.71,0,0,0,11.52-14.59H272.42a10,10,0,0,1-4.08,6.47,13.3,13.3,0,0,1-8.11,2.44,12.93,12.93,0,0,1-9.17-3.45c-2.47-2.29-3.79-5.83-3.95-10.59h35.66A22.72,22.72,0,0,0,283.1,40a22.23,22.23,0,0,0-2.73-11A19.61,19.61,0,0,0,272.55,21.32ZM247.11,39.78q.33-6.72,4.12-10.17a13.45,13.45,0,0,1,9.42-3.45,14.61,14.61,0,0,1,6.52,1.47,10.88,10.88,0,0,1,4.7,4.54,14.28,14.28,0,0,1,1.56,7.61Z"/><path class="cls-9" d="M312.79,26.83a13,13,0,0,1,8.12,2.48A10.89,10.89,0,0,1,325,36.17h10.18a20.53,20.53,0,0,0-7.32-12.91Q322,18.51,313,18.5a24.25,24.25,0,0,0-11.9,2.86,20.42,20.42,0,0,0-8.12,8.25A25.88,25.88,0,0,0,290,42.22a26.1,26.1,0,0,0,2.94,12.7,20.33,20.33,0,0,0,8.12,8.24A24.14,24.14,0,0,0,313,66q9,0,14.89-4.79a20.73,20.73,0,0,0,7.32-12.95H325a11,11,0,0,1-4.08,6.89,12.78,12.78,0,0,1-8.12,2.53,12.14,12.14,0,0,1-9.25-4q-3.71-3.94-3.7-11.52t3.7-11.48A12.2,12.2,0,0,1,312.79,26.83Z"/></g></g></svg>