<svg xmlns="http://www.w3.org/2000/svg" viewBox="0 0 384.22 384.22"><g data-name="Layer 2"><g data-name="Layer 1"><path fill="#fff" d="M378.5 82.24l-4.26 20.13-17.03 13.54-1.94 16.26-4.69-1.68-28.6 25.59.38-29.04-30.18 2.2h-.02l-10.05 3.32-32.52 28.65 23.03 29.36 20.52 7.74 14.52-21.29 4.84 18.97-5.89 14.45 16.14 4.57-20.51 24.39-42.2 17.55 9.68-19.49-22.06-12.38-39.62 13.03-24.77 37.68-6.19 37.67 1.54 51.62-117.16-90.84L5.72 171.01l48.52-46.97 65.8-46.96-17.8-4.65-20.65-18.06 46.2-16.52 40.51 3.87 49.55-17.16 52.26-5.42 29.42 20.65 46.45 21.93 20.52 4.65 12 15.87z"/><path fill="none" d="M0 0h384.22v384.22H0z"/></g></g></svg>