<svg xmlns="http://www.w3.org/2000/svg" viewBox="0 0 193.16 193.16"><g data-name="Layer 2"><g data-name="Layer 1"><path fill="#fff" d="M10.06 168.31l36.16-17.13.78 23.54 24.36-23.99 9.59 19.07 17.75-24.73 6.87 14.68 32.14-42.16.26 5.3 15.16-6.56.52 4.92 13.74-6.26 8.41-9.23-6.6-7.16-.78-9.09-2.59 4.55-35.51 6.63 11.8-13.7 27.6-9.09 1.42 8.87 7-11.63 6.12-1.67 5.94-26.7-50.55.89-6.48-12.5-24.61-2.69-27.48 5.95-33.44-12.8 7.26 18.17 15.29 14.59 5.7 2.99-9.06.07-19.96 8.57-26.31 29.73 15.68 4.08-23.85 27.55 23.2.15-25.53 36.79z"/><path fill="none" d="M0 0h193.16v193.16H0z"/></g></g></svg>