<svg id="Layer_1" data-name="Layer 1" xmlns="http://www.w3.org/2000/svg" xmlns:xlink="http://www.w3.org/1999/xlink" viewBox="0 0 511.61 138.19"><defs><style>.cls-1{fill:url(#Gold_Dust);}.cls-2{fill:url(#Gold_Dust-2);}.cls-3{fill:url(#Gold_Dust-3);}.cls-4{fill:url(#Gold_Dust-4);}.cls-5{fill:url(#Gold_Dust-5);}.cls-6{fill:url(#Gold_Dust-6);}.cls-7{fill:url(#Gold_Dust-7);}.cls-8{fill:url(#Gold_Dust-8);}.cls-9{fill:url(#Gold_Dust-9);}.cls-10{fill:url(#linear-gradient);}.cls-11{fill:url(#linear-gradient-2);}.cls-12{fill:url(#linear-gradient-3);}.cls-13{fill:url(#linear-gradient-4);}.cls-14{fill:url(#linear-gradient-5);}.cls-15{fill:url(#linear-gradient-6);}</style><linearGradient id="Gold_Dust" x1="144.44" y1="74.66" x2="574.86" y2="68.8" gradientUnits="userSpaceOnUse"><stop offset="0" stop-color="#ff7300"/><stop offset="0.18" stop-color="#f97c01"/><stop offset="0.47" stop-color="#ea9602"/><stop offset="0.55" stop-color="#e59e03"/><stop offset="0.87" stop-color="#e5c500"/><stop offset="0.99" stop-color="#bf6f00"/></linearGradient><linearGradient id="Gold_Dust-2" x1="143.94" y1="37.95" x2="574.36" y2="32.09" xlink:href="#Gold_Dust"/><linearGradient id="Gold_Dust-3" x1="144.45" y1="74.98" x2="574.86" y2="69.12" xlink:href="#Gold_Dust"/><linearGradient id="Gold_Dust-4" x1="144.38" y1="70.04" x2="574.79" y2="64.18" xlink:href="#Gold_Dust"/><linearGradient id="Gold_Dust-5" x1="144.47" y1="76.35" x2="574.88" y2="70.49" xlink:href="#Gold_Dust"/><linearGradient id="Gold_Dust-6" x1="144.47" y1="76.65" x2="574.88" y2="70.79" xlink:href="#Gold_Dust"/><linearGradient id="Gold_Dust-7" x1="144.48" y1="77.47" x2="574.9" y2="71.61" xlink:href="#Gold_Dust"/><linearGradient id="Gold_Dust-8" x1="144.49" y1="78.12" x2="574.9" y2="72.26" xlink:href="#Gold_Dust"/><linearGradient id="Gold_Dust-9" x1="144.5" y1="78.83" x2="574.91" y2="72.97" xlink:href="#Gold_Dust"/><linearGradient id="linear-gradient" x1="9.11" y1="69.22" x2="132.89" y2="69.22" gradientUnits="userSpaceOnUse"><stop offset="0" stop-color="#ff7300"/><stop offset="0.29" stop-color="#f97c01"/><stop offset="0.78" stop-color="#ea9602"/><stop offset="0.91" stop-color="#e59e03"/><stop offset="1" stop-color="#e5c500"/><stop offset="1" stop-color="#d9aa00"/><stop offset="1" stop-color="#d09400"/><stop offset="1" stop-color="#c88300"/><stop offset="1" stop-color="#c37800"/><stop offset="1" stop-color="#c07100"/><stop offset="1" stop-color="#bf6f00"/></linearGradient><linearGradient id="linear-gradient-2" x1="39.88" y1="69.18" x2="102.51" y2="69.18" xlink:href="#linear-gradient"/><linearGradient id="linear-gradient-3" x1="39.24" y1="51.82" x2="67.15" y2="51.82" xlink:href="#linear-gradient"/><linearGradient id="linear-gradient-4" x1="39.37" y1="60.6" x2="84.82" y2="60.6" xlink:href="#linear-gradient"/><linearGradient id="linear-gradient-5" x1="74.85" y1="86.94" x2="102.75" y2="86.94" xlink:href="#linear-gradient"/><linearGradient id="linear-gradient-6" x1="57.17" y1="78.16" x2="102.63" y2="78.16" xlink:href="#linear-gradient"/></defs><title>Artboard 1</title><rect class="cls-1" x="167.92" y="51.1" width="9.59" height="46.34"/><path class="cls-2" d="M172.71,32a6.19,6.19,0,0,0-4.46,1.6,5.32,5.32,0,0,0-1.68,4,5.08,5.08,0,0,0,1.68,4,6.41,6.41,0,0,0,4.46,1.51,6.57,6.57,0,0,0,4.5-1.51,5,5,0,0,0,1.72-4,5.25,5.25,0,0,0-1.72-4A6.34,6.34,0,0,0,172.71,32Z"/><path class="cls-3" d="M215,50.34a18.09,18.09,0,0,0-10.1,2.86,15.57,15.57,0,0,0-6.22,8.08V51.1h-9.59V97.44h9.59V72.8q0-7.06,3.45-10.72a12,12,0,0,1,9.16-3.66q5.56,0,8.75,3.41t3.2,9.63v26h9.59v-27q0-9.68-4.88-14.89T215,50.34Z"/><path class="cls-4" d="M257.53,87.6q-1.47-1.51-1.47-5.46V59.26h11.19V51.1H256.06V39.58h-9.67V51.1h-6.65v8.16h6.65V82q0,8.32,3.82,11.9t11.23,3.57h5.89V89.12H262.7C260.24,89.12,258.51,88.61,257.53,87.6Z"/><path class="cls-5" d="M308.84,53.33a26.37,26.37,0,0,0-23.81,0,20.39,20.39,0,0,0-8.11,8.25A25.77,25.77,0,0,0,274,74.23a26,26,0,0,0,2.95,12.7A20.31,20.31,0,0,0,285,95.17,24.18,24.18,0,0,0,296.94,98a25.09,25.09,0,0,0,10.51-2.14A19.71,19.71,0,0,0,319,81.3H308.71a10,10,0,0,1-4.08,6.47,13.31,13.31,0,0,1-8.12,2.44,12.91,12.91,0,0,1-9.16-3.45c-2.47-2.29-3.79-5.83-4-10.59h35.67a22.8,22.8,0,0,0,.33-4.13,22.23,22.23,0,0,0-2.73-11A19.61,19.61,0,0,0,308.84,53.33ZM283.39,71.79q.35-6.72,4.13-10.17a13.45,13.45,0,0,1,9.42-3.45,14.53,14.53,0,0,1,6.51,1.47,10.79,10.79,0,0,1,4.71,4.54,14.26,14.26,0,0,1,1.56,7.61Z"/><path class="cls-6" d="M338.23,60.19V51.1h-9.59V97.44h9.59V74q0-7.07,3.83-10.14t10.13-3.07h2.86V50.34A19.13,19.13,0,0,0,345,53,17.88,17.88,0,0,0,338.23,60.19Z"/><path class="cls-7" d="M389.16,73.56a62,62,0,0,0-8.45-2.44q-4-.93-6.1-1.68A10.11,10.11,0,0,1,371,67.33a4.62,4.62,0,0,1-1.43-3.53,5.88,5.88,0,0,1,2-4.67,8.29,8.29,0,0,1,5.59-1.72,10.32,10.32,0,0,1,7,2.31,9.91,9.91,0,0,1,3.24,6.1h9.08a17.65,17.65,0,0,0-6-11.14q-4.93-4.17-13.08-4.17-7.83,0-12.24,3.66a11.79,11.79,0,0,0-4.42,9.55A10.8,10.8,0,0,0,363,70.91a12.83,12.83,0,0,0,5.38,3.83,69.71,69.71,0,0,0,8.2,2.35,53.2,53.2,0,0,1,6.23,1.64A10.67,10.67,0,0,1,386.59,81a5.06,5.06,0,0,1,1.52,3.87,5.92,5.92,0,0,1-2,4.58,7.72,7.72,0,0,1-5.42,1.81A12,12,0,0,1,373,88.87a8.8,8.8,0,0,1-3.37-6.14h-9.33A16.62,16.62,0,0,0,366.7,94q5.34,4,14,4,7.49,0,11.9-3.61A11.6,11.6,0,0,0,397,85a11.2,11.2,0,0,0-2.31-7.45A13.67,13.67,0,0,0,389.16,73.56Z"/><path class="cls-8" d="M439.12,53.33a26.35,26.35,0,0,0-23.8,0,20.35,20.35,0,0,0-8.12,8.25,25.88,25.88,0,0,0-2.95,12.61,26.1,26.1,0,0,0,2.95,12.7,20.27,20.27,0,0,0,8.12,8.24A24.11,24.11,0,0,0,427.22,98a25.06,25.06,0,0,0,10.51-2.14A19.71,19.71,0,0,0,449.25,81.3H439a10,10,0,0,1-4.08,6.47,13.3,13.3,0,0,1-8.11,2.44,12.93,12.93,0,0,1-9.17-3.45c-2.47-2.29-3.79-5.83-3.95-10.59h35.66a22.8,22.8,0,0,0,.33-4.13,22.23,22.23,0,0,0-2.73-11A19.61,19.61,0,0,0,439.12,53.33ZM413.68,71.79q.33-6.72,4.12-10.17a13.45,13.45,0,0,1,9.42-3.45,14.61,14.61,0,0,1,6.52,1.47,10.84,10.84,0,0,1,4.71,4.54A14.36,14.36,0,0,1,440,71.79Z"/><path class="cls-9" d="M479.36,58.84a13,13,0,0,1,8.12,2.48,10.89,10.89,0,0,1,4.08,6.86h10.18a20.58,20.58,0,0,0-7.32-12.92q-5.9-4.74-14.89-4.75a24.28,24.28,0,0,0-11.9,2.86,20.42,20.42,0,0,0-8.12,8.25,25.88,25.88,0,0,0-2.94,12.61,26.1,26.1,0,0,0,2.94,12.7,20.33,20.33,0,0,0,8.12,8.24A24.17,24.17,0,0,0,479.53,98q9,0,14.89-4.79a20.73,20.73,0,0,0,7.32-12.95H491.56a11,11,0,0,1-4.08,6.89,12.78,12.78,0,0,1-8.12,2.53,12.14,12.14,0,0,1-9.25-4q-3.71-3.94-3.7-11.52t3.7-11.48A12.2,12.2,0,0,1,479.36,58.84Z"/><path class="cls-10" d="M108.21,120c20.73-15.67,30.44-42.51,23.34-67.73a63.52,63.52,0,0,0-56-45.68A63.42,63.42,0,0,0,13.12,44.72,63.49,63.49,0,0,0,28,115.23c22,20.59,55.94,22.27,80.21,4.78,1.55-1.12.05-3.72-1.52-2.59C86.76,131.78,59.92,133.15,39,120a60.42,60.42,0,0,1-26.23-64.6A60.45,60.45,0,0,1,64.89,9.73a60.51,60.51,0,0,1,59.72,32.88c12.93,25.78,4.93,57.54-17.92,74.81C105.17,118.57,106.66,121.18,108.21,120Z"/><path class="cls-11" d="M101.1,36.74,47,91.6l-7.79,7.9c-1.36,1.38.76,3.5,2.12,2.12L95.43,46.75l7.79-7.89c1.35-1.38-.77-3.5-2.12-2.12Z"/><path class="cls-12" d="M40.66,66.66,67.85,39.09A1.5,1.5,0,0,0,65.73,37L38.53,64.54c-1.35,1.38.77,3.5,2.13,2.12Z"/><path class="cls-13" d="M40.78,84.34,85.53,39c1.35-1.38-.77-3.5-2.12-2.12L38.66,82.22a1.5,1.5,0,0,0,2.12,2.12Z"/><path class="cls-14" d="M76.26,101.79l27.2-27.57c1.36-1.37-.76-3.5-2.12-2.12L74.14,99.67c-1.36,1.37.76,3.5,2.12,2.12Z"/><path class="cls-15" d="M58.58,101.91l44.76-45.37c1.36-1.37-.76-3.5-2.12-2.12L56.46,99.79c-1.36,1.37.76,3.5,2.12,2.12Z"/></svg>